# xmcd
#
# Track frame offsets:
# 150
# 18720
# 35930
# 49950
# 61158
# 80408
# 95025
# 108248
# 123393
# 145190
# 167905
# 192988
# 204630
# 220728
# 242810
# 255270
# 277190
#
# Disc length: 4057 seconds
#
#
# Revision: 0
# Processed by: cddbd v1.5.1PL0 Copyright (c) Steve Scherf et al.
# Submitted via: FreeRIP 2.92 
#
DISCID=030fd711
DTITLE=THE BLUES PROJECT - Live at the Café Au Go Go [1965 Live and Bonus Track]
DYEAR=1900
DGENRE=Psychedelic Rock
TTITLE0=Goin' Down Louisiana
TTITLE1=You Go and I'll Go With You
TTITLE2=Catch the Wind
TTITLE3=I Want to Be Your Driver
TTITLE4=Alberta
TTITLE5=Way My Baby Walks
TTITLE6=Violets of Dawn
TTITLE7=Back Door Man
TTITLE8=Jelly Jelly Blues
TTITLE9=Spoonful
TTITLE10=Who Do You Love?
TTITLE11=Hoochie Coochie Man [*]
TTITLE12=Parchman Farm [*]
TTITLE13=Alberta [Alternate Version][*]
TTITLE14=Have You Ever Had the Blues? [*]
TTITLE15=Bright Lights, Big City [*]
TTITLE16=Who Do You Love? [Alternate Version][*]
EXTD=
EXTT0=
EXTT1=
EXTT2=
EXTT3=
EXTT4=
EXTT5=
EXTT6=
EXTT7=
EXTT8=
EXTT9=
EXTT10=
EXTT11=
EXTT12=
EXTT13=
EXTT14=
EXTT15=
EXTT16=
PLAYORDER=
